<?xml version="1.0" standalone="no"?>
<!DOCTYPE svg PUBLIC "-//W3C//DTD SVG 20010904//EN"
 "http://www.w3.org/TR/2001/REC-SVG-20010904/DTD/svg10.dtd">
<svg version="1.0" xmlns="http://www.w3.org/2000/svg"
 width="1279.000000pt" height="1279.000000pt" viewBox="0 0 1279.000000 1279.000000"
 preserveAspectRatio="xMidYMid meet">
<metadata>
Created by potrace 1.11, written by Peter Selinger 2001-2013
</metadata>
<g transform="translate(0.000000,1279.000000) scale(0.100000,-0.100000)"
fill="#000000" stroke="none">
<path d="M5985 11699 c-951 -60 -1891 -381 -2697 -921 -65 -43 -118 -80 -118
-83 0 -2 55 32 123 75 562 359 1221 613 1892 730 454 79 1025 92 1475 34 1392
-178 2635 -894 3465 -1995 599 -795 953 -1740 1026 -2738 15 -206 6 -683 -16
-880 -181 -1619 -1079 -3029 -2457 -3856 -881 -530 -1943 -791 -2943 -725
-1112 74 -2141 486 -2995 1199 -149 124 -490 464 -612 611 -920 1106 -1342
2520 -1168 3915 30 244 30 246 15 175 -40 -184 -71 -466 -86 -763 -42 -873
149 -1788 540 -2593 441 -906 1090 -1646 1916 -2186 1626 -1064 3678 -1185
5415 -322 551 274 1000 595 1425 1019 831 829 1373 1904 1545 3065 43 290 53
452 53 800 0 360 -11 519 -59 830 -152 995 -588 1942 -1250 2720 -124 146
-434 456 -584 584 -825 706 -1869 1160 -2940 1280 -310 35 -662 44 -965 25z"/>
<path d="M5790 11004 c-25 -2 -108 -11 -185 -19 -621 -68 -1248 -273 -1801
-590 -112 -65 -393 -250 -439 -290 -16 -15 13 3 65 38 641 435 1359 701 2145
794 189 22 765 25 950 5 829 -91 1532 -345 2195 -793 584 -395 1091 -944 1439
-1559 92 -163 101 -175 46 -62 -175 358 -472 767 -804 1105 -744 759 -1687
1217 -2781 1352 -129 16 -712 29 -830 19z"/>
<path d="M5935 10424 c-772 -57 -1304 -205 -1858 -518 -1180 -666 -1983 -1869
-2166 -3243 -90 -677 -26 -1356 191 -2007 177 -534 453 -1015 823 -1436 247
-280 606 -597 880 -775 601 -391 1125 -597 1820 -715 487 -82 867 -79 1331 11
543 105 1130 345 1572 641 56 38 102 70 102 73 0 3 -38 -20 -83 -50 -236 -153
-607 -316 -962 -420 -268 -79 -502 -126 -795 -161 -195 -24 -596 -24 -808 0
-543 59 -1038 218 -1507 484 -166 94 -596 392 -791 548 -792 636 -1331 1581
-1493 2619 -37 242 -46 364 -46 660 0 305 9 423 51 684 122 760 441 1453 934
2025 113 131 358 370 486 472 528 424 1157 710 1799 818 407 68 996 96 1272
61 615 -79 1315 -348 1868 -718 534 -357 1055 -885 1416 -1435 291 -442 496
-1028 578 -1647 9 -64 9 -61 4 35 -26 538 -149 1011 -397 1525 -662 1371
-1933 2273 -3456 2451 -127 14 -644 27 -765 18z"/>
<path d="M6065 10080 c-692 -36 -1306 -215 -1845 -537 -845 -506 -1447 -1279
-1730 -2221 -63 -210 -110 -441 -142 -702 -18 -141 -17 -698 0 -845 69 -579
246 -1128 517 -1601 254 -444 602 -847 988 -1147 119 -92 259 -191 192 -135
-461 384 -740 730 -990 1228 -423 844 -514 1863 -255 2866 137 532 383 1046
680 1424 l51 65 -57 -60 c-163 -174 -365 -464 -481 -690 -287 -563 -420 -1120
-441 -1850 -7 -232 -12 -223 -32 50 -15 201 -9 406 20 659 108 939 469 1726
1065 2321 294 294 581 497 967 685 549 266 1126 389 1823 390 622 0 1077 -78
1514 -259 125 -52 89 -27 -46 32 -248 108 -401 160 -653 222 -362 88 -764 125
-1145 105z"/>
<path d="M3309 10063 c-13 -16 -12 -17 4 -4 9 7 17 15 17 17 0 8 -8 3 -21 -13z"/>
<path d="M3269 10033 c-13 -16 -12 -17 4 -4 16 13 21 21 13 21 -2 0 -10 -8
-17 -17z"/>
<path d="M6157 9819 c-673 -40 -1242 -237 -1837 -634 -208 -139 -347 -252
-515 -418 -150 -148 -161 -168 -28 -51 205 182 448 341 738 484 430 212 755
303 1330 372 171 20 714 17 890 -5 984 -126 1804 -566 2380 -1276 292 -361
533 -841 681 -1356 47 -165 42 -166 -15 0 -115 336 -253 615 -442 895 -534
789 -1388 1349 -2363 1550 -366 75 -840 96 -1133 50 -283 -45 -697 -177 -944
-300 -162 -82 -421 -259 -539 -369 -33 -30 -22 -24 40 22 272 205 499 321 854
436 319 103 432 125 745 142 324 17 630 -12 949 -91 649 -160 1131 -433 1578
-891 401 -412 745 -1250 789 -1924 13 -199 -27 -568 -89 -811 -143 -563 -459
-1092 -881 -1476 -108 -99 -378 -306 -525 -405 -892 -597 -2058 -673 -3029
-198 -804 394 -1384 1104 -1601 1960 -61 239 -84 407 -98 695 l-7 155 -13 -90
c-44 -320 -37 -693 18 -920 306 -1283 1370 -2255 2680 -2450 340 -50 743 -43
1081 21 1266 237 2284 1217 2564 2469 60 269 69 363 69 710 1 257 -3 344 -17
440 -25 163 -61 334 -102 474 -19 63 -32 117 -30 119 5 6 80 -235 110 -357
110 -438 124 -952 39 -1411 -80 -437 -255 -863 -509 -1245 -143 -215 -236
-327 -429 -520 -289 -287 -551 -473 -919 -650 -1010 -486 -2197 -432 -3169
146 -410 243 -734 549 -1011 954 -208 305 -352 586 -441 865 -157 488 -203
1103 -126 1705 11 82 18 151 16 152 -6 6 -57 -254 -76 -387 -79 -550 -42
-1119 107 -1610 57 -190 99 -295 198 -495 159 -322 344 -584 599 -843 406
-414 885 -706 1495 -914 244 -83 536 -143 811 -167 69 -6 141 -13 160 -15 91
-8 -203 -5 -330 4 -493 35 -920 124 -1290 269 -138 54 98 -79 267 -151 443
-188 991 -281 1553 -265 781 23 1523 274 2105 712 229 172 492 419 654 613
226 271 498 725 637 1062 140 341 238 728 274 1084 16 153 8 581 -15 766 -75
629 -248 1165 -532 1650 -538 917 -1461 1532 -2543 1694 -207 31 -543 42 -813
25z"/>
<path d="M1011 7434 c0 -11 3 -14 6 -6 3 7 2 16 -1 19 -3 4 -6 -2 -5 -13z"/>
<path d="M1001 7384 c0 -11 3 -14 6 -6 3 7 2 16 -1 19 -3 4 -6 -2 -5 -13z"/>
<path d="M992 7330 c0 -14 2 -19 5 -12 2 6 2 18 0 25 -3 6 -5 1 -5 -13z"/>
</g>
</svg>
